Point(0)={0,0,0,0.25};
Point(1)={0.25,0,0,0.25};
Point(2)={0,0.25,0,0.25};
Point(3)={0.25,0.25,0,0.25};
Point(4)={0,0,0.25,0.25};
Point(5)={0.25,0,0.25,0.25};
Point(6)={0,0.25,0.25,0.25};
Point(7)={0.25,0.25,0.25,0.25};
Point(8)={0.25,0,0.5,0.25};
Point(9)={0,0,0.5,0.25};
Point(10)={0.25,0.25,0.5,0.25};
Point(11)={0,0.25,0.5,0.25};
Point(12)={0,0.25,0.75,0.25};
Point(13)={0,0,0.75,0.25};
Point(14)={0.25,0,0.75,0.25};
Point(15)={0.25,0.25,0.75,0.25};
Point(16)={0.25,0.25,1,0.25};
Point(17)={0,0,1,0.25};
Point(18)={0,0.25,1,0.25};
Point(19)={0.25,0,1,0.25};
Point(20)={0.25,0.5,0.25,0.25};
Point(21)={0,0.5,0,0.25};
Point(22)={0,0.5,0.25,0.25};
Point(23)={0.25,0.5,0,0.25};
Point(24)={0.25,0.5,0.5,0.25};
Point(25)={0,0.5,0.5,0.25};
Point(26)={0.25,0.5,0.75,0.25};
Point(27)={0,0.5,0.75,0.25};
Point(28)={0.25,0.5,1,0.25};
Point(29)={0,0.5,1,0.25};
Point(30)={0.25,0.75,0.25,0.25};
Point(31)={0,0.75,0,0.25};
Point(32)={0.25,0.75,0,0.25};
Point(33)={0,0.75,0.25,0.25};
Point(34)={0,0.75,0.5,0.25};
Point(35)={0.25,0.75,0.5,0.25};
Point(36)={0,0.75,0.75,0.25};
Point(37)={0.25,0.75,0.75,0.25};
Point(38)={0.25,0.75,1,0.25};
Point(39)={0,0.75,1,0.25};
Point(40)={0.25,1,0.25,0.25};
Point(41)={0,1,0,0.25};
Point(42)={0,1,0.25,0.25};
Point(43)={0.25,1,0,0.25};
Point(44)={0,1,0.5,0.25};
Point(45)={0.25,1,0.5,0.25};
Point(46)={0.25,1,0.75,0.25};
Point(47)={0,1,0.75,0.25};
Point(48)={0,1,1,0.25};
Point(49)={0.25,1,1,0.25};
Point(50)={0.5,0,0,0.25};
Point(51)={0.5,0,0.25,0.25};
Point(52)={0.5,0.25,0,0.25};
Point(53)={0.5,0.25,0.25,0.25};
Point(54)={0.5,0.25,0.5,0.25};
Point(55)={0.5,0,0.5,0.25};
Point(56)={0.5,0,0.75,0.25};
Point(57)={0.5,0.25,0.75,0.25};
Point(58)={0.5,0,1,0.25};
Point(59)={0.5,0.25,1,0.25};
Point(60)={0.5,0.5,0,0.25};
Point(61)={0.5,0.5,0.25,0.25};
Point(62)={0.5,0.5,0.5,0.25};
Point(63)={0.5,0.5,0.75,0.25};
Point(64)={0.5,0.5,1,0.25};
Point(65)={0.5,0.75,0.25,0.25};
Point(66)={0.5,0.75,0,0.25};
Point(67)={0.5,0.75,0.5,0.25};
Point(68)={0.5,0.75,0.75,0.25};
Point(69)={0.5,0.75,1,0.25};
Point(70)={0.5,1,0.25,0.25};
Point(71)={0.5,1,0,0.25};
Point(72)={0.5,1,0.5,0.25};
Point(73)={0.5,1,0.75,0.25};
Point(74)={0.5,1,1,0.25};
Point(75)={0.75,0,0,0.25};
Point(76)={0.75,0.25,0.25,0.25};
Point(77)={0.75,0.25,0,0.25};
Point(78)={0.75,0,0.25,0.25};
Point(79)={0.75,0.25,0.5,0.25};
Point(80)={0.75,0,0.5,0.25};
Point(81)={0.75,0,0.75,0.25};
Point(82)={0.75,0.25,0.75,0.25};
Point(83)={0.75,0.25,1,0.25};
Point(84)={0.75,0,1,0.25};
Point(85)={0.75,0.5,0.25,0.25};
Point(86)={0.75,0.5,0,0.25};
Point(87)={0.75,0.5,0.5,0.25};
Point(88)={0.75,0.5,0.75,0.25};
Point(89)={0.75,0.5,1,0.25};
Point(90)={0.75,0.75,0.25,0.25};
Point(91)={0.75,0.75,0,0.25};
Point(92)={0.75,0.75,0.5,0.25};
Point(93)={0.75,0.75,0.75,0.25};
Point(94)={0.75,0.75,1,0.25};
Point(95)={0.75,1,0,0.25};
Point(96)={0.75,1,0.25,0.25};
Point(97)={0.75,1,0.5,0.25};
Point(98)={0.75,1,0.75,0.25};
Point(99)={0.75,1,1,0.25};
Point(100)={1,0,0,0.25};
Point(101)={1,0,0.25,0.25};
Point(102)={1,0.25,0.25,0.25};
Point(103)={1,0.25,0,0.25};
Point(104)={1,0.25,0.5,0.25};
Point(105)={1,0,0.5,0.25};
Point(106)={1,0.25,0.75,0.25};
Point(107)={1,0,0.75,0.25};
Point(108)={1,0.25,1,0.25};
Point(109)={1,0,1,0.25};
Point(110)={1,0.5,0,0.25};
Point(111)={1,0.5,0.25,0.25};
Point(112)={1,0.5,0.5,0.25};
Point(113)={1,0.5,0.75,0.25};
Point(114)={1,0.5,1,0.25};
Point(115)={1,0.75,0,0.25};
Point(116)={1,0.75,0.25,0.25};
Point(117)={1,0.75,0.5,0.25};
Point(118)={1,0.75,0.75,0.25};
Point(119)={1,0.75,1,0.25};
Point(120)={1,1,0,0.25};
Point(121)={1,1,0.25,0.25};
Point(122)={1,1,0.5,0.25};
Point(123)={1,1,0.75,0.25};
Point(124)={1,1,1,0.25};
Line(5)={1,0};
Line(9)={2,0};
Line(4)={3,1};
Line(8)={3,2};
Line(6)={0,4};
Line(1)={1,5};
Line(7)={4,5};
Line(11)={6,2};
Line(12)={6,4};
Line(3)={7,3};
Line(2)={5,7};
Line(10)={7,6};
Line(13)={5,8};
Line(16)={4,9};
Line(17)={9,8};
Line(15)={10,7};
Line(14)={8,10};
Line(19)={11,6};
Line(20)={9,11};
Line(18)={10,11};
Line(28)={12,11};
Line(24)={9,13};
Line(27)={13,12};
Line(21)={8,14};
Line(25)={13,14};
Line(23)={15,10};
Line(26)={12,15};
Line(22)={14,15};
Line(29)={15,16};
Line(36)={17,13};
Line(31)={18,12};
Line(30)={16,18};
Line(35)={17,18};
Line(32)={14,19};
Line(33)={19,16};
Line(34)={19,17};
Line(39)={7,20};
Line(44)={21,2};
Line(43)={6,22};
Line(40)={20,22};
Line(41)={22,21};
Line(38)={23,3};
Line(37)={20,23};
Line(42)={21,23};
Line(48)={24,10};
Line(47)={20,24};
Line(49)={11,25};
Line(46)={25,22};
Line(45)={24,25};
Line(53)={26,15};
Line(52)={24,26};
Line(54)={12,27};
Line(51)={27,25};
Line(50)={26,27};
Line(58)={28,16};
Line(59)={26,28};
Line(56)={29,18};
Line(55)={27,29};
Line(57)={29,28};
Line(62)={30,20};
Line(63)={21,31};
Line(67)={23,32};
Line(66)={32,30};
Line(65)={31,32};
Line(60)={22,33};
Line(61)={33,30};
Line(64)={31,33};
Line(72)={25,34};
Line(70)={34,33};
Line(71)={24,35};
Line(68)={30,35};
Line(69)={35,34};
Line(73)={27,36};
Line(76)={34,36};
Line(75)={37,26};
Line(77)={35,37};
Line(74)={36,37};
Line(82)={28,38};
Line(78)={37,38};
Line(81)={39,29};
Line(80)={39,36};
Line(79)={38,39};
Line(83)={30,40};
Line(87)={41,31};
Line(89)={42,33};
Line(90)={40,42};
Line(88)={41,42};
Line(85)={43,32};
Line(84)={40,43};
Line(86)={43,41};
Line(95)={44,34};
Line(94)={44,42};
Line(91)={35,45};
Line(92)={45,40};
Line(93)={45,44};
Line(96)={37,46};
Line(97)={46,45};
Line(100)={36,47};
Line(99)={47,44};
Line(98)={46,47};
Line(105)={39,48};
Line(104)={48,47};
Line(101)={38,49};
Line(102)={49,46};
Line(103)={49,48};
Line(110)={50,1};
Line(111)={5,51};
Line(106)={50,51};
Line(112)={52,3};
Line(109)={52,50};
Line(113)={7,53};
Line(107)={51,53};
Line(108)={53,52};
Line(114)={10,54};
Line(118)={53,54};
Line(116)={55,8};
Line(117)={55,51};
Line(115)={54,55};
Line(122)={56,14};
Line(121)={55,56};
Line(123)={15,57};
Line(120)={57,54};
Line(119)={56,57};
Line(127)={58,19};
Line(126)={56,58};
Line(128)={16,59};
Line(125)={59,57};
Line(124)={58,59};
Line(132)={60,23};
Line(129)={60,52};
Line(133)={61,20};
Line(130)={53,61};
Line(131)={61,60};
Line(135)={62,24};
Line(136)={54,62};
Line(134)={61,62};
Line(137)={26,63};
Line(138)={63,57};
Line(139)={62,63};
Line(142)={28,64};
Line(140)={59,64};
Line(141)={64,63};
Line(145)={65,30};
Line(147)={61,65};
Line(143)={32,66};
Line(146)={60,66};
Line(144)={66,65};
Line(149)={67,35};
Line(150)={67,62};
Line(148)={65,67};
Line(151)={37,68};
Line(152)={68,63};
Line(153)={67,68};
Line(156)={38,69};
Line(154)={64,69};
Line(155)={69,68};
Line(159)={70,40};
Line(161)={70,65};
Line(157)={43,71};
Line(160)={66,71};
Line(158)={71,70};
Line(162)={45,72};
Line(163)={72,67};
Line(164)={72,70};
Line(167)={73,46};
Line(165)={68,73};
Line(166)={73,72};
Line(168)={49,74};
Line(169)={74,69};
Line(170)={73,74};
Line(175)={75,50};
Line(178)={76,53};
Line(177)={77,52};
Line(174)={77,75};
Line(173)={76,77};
Line(176)={51,78};
Line(171)={75,78};
Line(172)={78,76};
Line(180)={79,54};
Line(179)={76,79};
Line(181)={80,55};
Line(183)={80,78};
Line(182)={79,80};
Line(187)={56,81};
Line(184)={80,81};
Line(188)={57,82};
Line(186)={82,79};
Line(185)={81,82};
Line(190)={83,59};
Line(189)={82,83};
Line(192)={84,58};
Line(193)={84,81};
Line(191)={83,84};
Line(197)={85,61};
Line(196)={76,85};
Line(198)={60,86};
Line(195)={86,77};
Line(194)={85,86};
Line(201)={62,87};
Line(199)={79,87};
Line(200)={87,85};
Line(203)={88,63};
Line(204)={88,82};
Line(202)={87,88};
Line(206)={89,64};
Line(207)={89,83};
Line(205)={88,89};
Line(211)={65,90};
Line(208)={85,90};
Line(212)={66,91};
Line(210)={91,86};
Line(209)={90,91};
Line(214)={92,67};
Line(215)={87,92};
Line(213)={90,92};
Line(217)={93,68};
Line(218)={93,88};
Line(216)={92,93};
Line(221)={69,94};
Line(219)={89,94};
Line(220)={94,93};
Line(224)={71,95};
Line(226)={91,95};
Line(222)={70,96};
Line(223)={96,90};
Line(225)={95,96};
Line(229)={97,72};
Line(227)={92,97};
Line(228)={97,96};
Line(230)={73,98};
Line(231)={98,93};
Line(232)={97,98};
Line(233)={74,99};
Line(234)={99,94};
Line(235)={98,99};
Line(238)={75,100};
Line(242)={78,101};
Line(239)={100,101};
Line(243)={76,102};
Line(240)={101,102};
Line(237)={103,77};
Line(236)={100,103};
Line(241)={102,103};
Line(244)={79,104};
Line(248)={102,104};
Line(246)={105,80};
Line(247)={105,101};
Line(245)={104,105};
Line(250)={106,82};
Line(249)={104,106};
Line(252)={107,81};
Line(253)={105,107};
Line(251)={106,107};
Line(257)={108,83};
Line(256)={106,108};
Line(254)={84,109};
Line(255)={109,107};
Line(258)={109,108};
Line(261)={86,110};
Line(263)={110,103};
Line(259)={85,111};
Line(260)={111,102};
Line(262)={110,111};
Line(265)={87,112};
Line(264)={112,104};
Line(266)={112,111};
Line(268)={113,88};
Line(269)={106,113};
Line(267)={112,113};
Line(270)={89,114};
Line(271)={114,108};
Line(272)={114,113};
Line(274)={115,91};
Line(273)={110,115};
Line(275)={90,116};
Line(276)={116,111};
Line(277)={116,115};
Line(278)={117,92};
Line(280)={117,112};
Line(279)={116,117};
Line(281)={93,118};
Line(282)={118,113};
Line(283)={118,117};
Line(286)={119,94};
Line(284)={114,119};
Line(285)={119,118};
Line(291)={120,95};
Line(290)={120,115};
Line(287)={96,121};
Line(288)={121,116};
Line(289)={121,120};
Line(294)={97,122};
Line(292)={117,122};
Line(293)={122,121};
Line(295)={98,123};
Line(296)={123,118};
Line(297)={123,122};
Line(299)={124,99};
Line(300)={119,124};
Line(298)={123,124};
Line Loop(1)={1,2,3,4};
Plane Surface(1)={1};
Line Loop(2)={5,6,7,-1};
Plane Surface(2)={2};
Line Loop(3)={-4,8,9,-5};
Plane Surface(3)={3};
Line Loop(4)={-8,-3,10,11};
Plane Surface(4)={4};
Line Loop(5)={-11,12,-6,-9};
Plane Surface(5)={5};
Line Loop(6)={-12,-10,-2,-7};
Plane Surface(6)={6};
Line Loop(7)={13,14,15,-2};
Plane Surface(7)={7};
Line Loop(8)={-7,16,17,-13};
Plane Surface(8)={8};
Line Loop(9)={-15,18,19,-10};
Plane Surface(9)={9};
Line Loop(10)={-17,20,-18,-14};
Plane Surface(10)={10};
Line Loop(11)={-16,-12,-19,-20};
Plane Surface(11)={11};
Line Loop(12)={21,22,23,-14};
Plane Surface(12)={12};
Line Loop(13)={-17,24,25,-21};
Plane Surface(13)={13};
Line Loop(14)={26,-22,-25,27};
Plane Surface(14)={14};
Line Loop(15)={28,-18,-23,-26};
Plane Surface(15)={15};
Line Loop(16)={-27,-24,20,-28};
Plane Surface(16)={16};
Line Loop(17)={29,30,31,26};
Plane Surface(17)={17};
Line Loop(18)={-22,32,33,-29};
Plane Surface(18)={18};
Line Loop(19)={-33,34,35,-30};
Plane Surface(19)={19};
Line Loop(20)={-31,-35,36,27};
Plane Surface(20)={20};
Line Loop(21)={-34,-32,-25,-36};
Plane Surface(21)={21};
Line Loop(22)={37,38,-3,39};
Plane Surface(22)={22};
Line Loop(23)={40,41,42,-37};
Plane Surface(23)={23};
Line Loop(24)={-39,10,43,-40};
Plane Surface(24)={24};
Line Loop(25)={44,-8,-38,-42};
Plane Surface(25)={25};
Line Loop(26)={-41,-43,11,-44};
Plane Surface(26)={26};
Line Loop(27)={45,46,-40,47};
Plane Surface(27)={27};
Line Loop(28)={48,18,49,-45};
Plane Surface(28)={28};
Line Loop(29)={-47,-39,-15,-48};
Plane Surface(29)={29};
Line Loop(30)={-46,-49,19,43};
Plane Surface(30)={30};
Line Loop(31)={50,51,-45,52};
Plane Surface(31)={31};
Line Loop(32)={53,-26,54,-50};
Plane Surface(32)={32};
Line Loop(33)={-52,48,-23,-53};
Plane Surface(33)={33};
Line Loop(34)={49,-51,-54,28};
Plane Surface(34)={34};
Line Loop(35)={54,55,56,31};
Plane Surface(35)={35};
Line Loop(36)={-56,57,58,30};
Plane Surface(36)={36};
Line Loop(37)={-57,-55,-50,59};
Plane Surface(37)={37};
Line Loop(38)={-59,53,29,-58};
Plane Surface(38)={38};
Line Loop(39)={60,61,62,40};
Plane Surface(39)={39};
Line Loop(40)={41,63,64,-60};
Plane Surface(40)={40};
Line Loop(41)={65,66,-61,-64};
Plane Surface(41)={41};
Line Loop(42)={-63,42,67,-65};
Plane Surface(42)={42};
Line Loop(43)={-62,-66,-67,-37};
Plane Surface(43)={43};
Line Loop(44)={68,69,70,61};
Plane Surface(44)={44};
Line Loop(45)={62,47,71,-68};
Plane Surface(45)={45};
Line Loop(46)={-69,-71,45,72};
Plane Surface(46)={46};
Line Loop(47)={-72,46,60,-70};
Plane Surface(47)={47};
Line Loop(48)={73,74,75,50};
Plane Surface(48)={48};
Line Loop(49)={51,72,76,-73};
Plane Surface(49)={49};
Line Loop(50)={77,-74,-76,-69};
Plane Surface(50)={50};
Line Loop(51)={-71,52,-75,-77};
Plane Surface(51)={51};
Line Loop(52)={74,78,79,80};
Plane Surface(52)={52};
Line Loop(53)={-80,81,-55,73};
Plane Surface(53)={53};
Line Loop(54)={59,82,-78,75};
Plane Surface(54)={54};
Line Loop(55)={-82,-57,-81,-79};
Plane Surface(55)={55};
Line Loop(56)={66,83,84,85};
Plane Surface(56)={56};
Line Loop(57)={-85,86,87,65};
Plane Surface(57)={57};
Line Loop(58)={88,89,-64,-87};
Plane Surface(58)={58};
Line Loop(59)={-86,-84,90,-88};
Plane Surface(59)={59};
Line Loop(60)={-61,-89,-90,-83};
Plane Surface(60)={60};
Line Loop(61)={-83,68,91,92};
Plane Surface(61)={61};
Line Loop(62)={-92,93,94,-90};
Plane Surface(62)={62};
Line Loop(63)={-89,-94,95,70};
Plane Surface(63)={63};
Line Loop(64)={-93,-91,69,-95};
Plane Surface(64)={64};
Line Loop(65)={-91,77,96,97};
Plane Surface(65)={65};
Line Loop(66)={-97,98,99,-93};
Plane Surface(66)={66};
Line Loop(67)={-96,-74,100,-98};
Plane Surface(67)={67};
Line Loop(68)={-99,-100,-76,-95};
Plane Surface(68)={68};
Line Loop(69)={-96,78,101,102};
Plane Surface(69)={69};
Line Loop(70)={-102,103,104,-98};
Plane Surface(70)={70};
Line Loop(71)={79,105,-103,-101};
Plane Surface(71)={71};
Line Loop(72)={80,100,-104,-105};
Plane Surface(72)={72};
Line Loop(73)={106,107,108,109};
Plane Surface(73)={73};
Line Loop(74)={110,1,111,-106};
Plane Surface(74)={74};
Line Loop(75)={-109,112,4,-110};
Plane Surface(75)={75};
Line Loop(76)={2,113,-107,-111};
Plane Surface(76)={76};
Line Loop(77)={-108,-113,3,-112};
Plane Surface(77)={77};
Line Loop(78)={14,114,115,116};
Plane Surface(78)={78};
Line Loop(79)={-116,117,-111,13};
Plane Surface(79)={79};
Line Loop(80)={113,118,-114,15};
Plane Surface(80)={80};
Line Loop(81)={-118,-107,-117,-115};
Plane Surface(81)={81};
Line Loop(82)={119,120,115,121};
Plane Surface(82)={82};
Line Loop(83)={122,22,123,-119};
Plane Surface(83)={83};
Line Loop(84)={-121,116,21,-122};
Plane Surface(84)={84};
Line Loop(85)={-120,-123,23,114};
Plane Surface(85)={85};
Line Loop(86)={124,125,-119,126};
Plane Surface(86)={86};
Line Loop(87)={127,33,128,-124};
Plane Surface(87)={87};
Line Loop(88)={-126,122,32,-127};
Plane Surface(88)={88};
Line Loop(89)={-128,-29,123,-125};
Plane Surface(89)={89};
Line Loop(90)={129,-108,130,131};
Plane Surface(90)={90};
Line Loop(91)={132,38,-112,-129};
Plane Surface(91)={91};
Line Loop(92)={-131,133,37,-132};
Plane Surface(92)={92};
Line Loop(93)={39,-133,-130,-113};
Plane Surface(93)={93};
Line Loop(94)={134,135,-47,-133};
Plane Surface(94)={94};
Line Loop(95)={-130,118,136,-134};
Plane Surface(95)={95};
Line Loop(96)={-48,-135,-136,-114};
Plane Surface(96)={96};
Line Loop(97)={137,138,-123,-53};
Plane Surface(97)={97};
Line Loop(98)={-52,-135,139,-137};
Plane Surface(98)={98};
Line Loop(99)={-138,-139,-136,-120};
Plane Surface(99)={99};
Line Loop(100)={-125,140,141,138};
Plane Surface(100)={100};
Line Loop(101)={-128,-58,142,-140};
Plane Surface(101)={101};
Line Loop(102)={137,-141,-142,-59};
Plane Surface(102)={102};
Line Loop(103)={143,144,145,-66};
Plane Surface(103)={103};
Line Loop(104)={-67,-132,146,-143};
Plane Surface(104)={104};
Line Loop(105)={-144,-146,-131,147};
Plane Surface(105)={105};
Line Loop(106)={-147,133,-62,-145};
Plane Surface(106)={106};
Line Loop(107)={-145,148,149,-68};
Plane Surface(107)={107};
Line Loop(108)={71,-149,150,135};
Plane Surface(108)={108};
Line Loop(109)={-147,134,-150,-148};
Plane Surface(109)={109};
Line Loop(110)={151,152,-137,-75};
Plane Surface(110)={110};
Line Loop(111)={-77,-149,153,-151};
Plane Surface(111)={111};
Line Loop(112)={150,139,-152,-153};
Plane Surface(112)={112};
Line Loop(113)={-141,154,155,152};
Plane Surface(113)={113};
Line Loop(114)={-142,82,156,-154};
Plane Surface(114)={114};
Line Loop(115)={-155,-156,-78,151};
Plane Surface(115)={115};
Line Loop(116)={157,158,159,84};
Plane Surface(116)={116};
Line Loop(117)={85,143,160,-157};
Plane Surface(117)={117};
Line Loop(118)={-159,161,145,83};
Plane Surface(118)={118};
Line Loop(119)={-158,-160,144,-161};
Plane Surface(119)={119};
Line Loop(120)={149,91,162,163};
Plane Surface(120)={120};
Line Loop(121)={-163,164,161,148};
Plane Surface(121)={121};
Line Loop(122)={-162,92,-159,-164};
Plane Surface(122)={122};
Line Loop(123)={153,165,166,163};
Plane Surface(123)={123};
Line Loop(124)={167,97,162,-166};
Plane Surface(124)={124};
Line Loop(125)={-165,-151,96,-167};
Plane Surface(125)={125};
Line Loop(126)={101,168,169,-156};
Plane Surface(126)={126};
Line Loop(127)={102,-167,170,-168};
Plane Surface(127)={127};
Line Loop(128)={-170,-165,-155,-169};
Plane Surface(128)={128};
Line Loop(129)={171,172,173,174};
Plane Surface(129)={129};
Line Loop(130)={175,106,176,-171};
Plane Surface(130)={130};
Line Loop(131)={-174,177,109,-175};
Plane Surface(131)={131};
Line Loop(132)={178,108,-177,-173};
Plane Surface(132)={132};
Line Loop(133)={-172,-176,107,-178};
Plane Surface(133)={133};
Line Loop(134)={-178,179,180,-118};
Plane Surface(134)={134};
Line Loop(135)={181,-115,-180,182};
Plane Surface(135)={135};
Line Loop(136)={183,-176,-117,-181};
Plane Surface(136)={136};
Line Loop(137)={-182,-179,-172,-183};
Plane Surface(137)={137};
Line Loop(138)={184,185,186,182};
Plane Surface(138)={138};
Line Loop(139)={181,121,187,-184};
Plane Surface(139)={139};
Line Loop(140)={-187,119,188,-185};
Plane Surface(140)={140};
Line Loop(141)={-186,-188,120,-180};
Plane Surface(141)={141};
Line Loop(142)={188,189,190,125};
Plane Surface(142)={142};
Line Loop(143)={-190,191,192,124};
Plane Surface(143)={143};
Line Loop(144)={126,-192,193,-187};
Plane Surface(144)={144};
Line Loop(145)={-185,-193,-191,-189};
Plane Surface(145)={145};
Line Loop(146)={194,195,-173,196};
Plane Surface(146)={146};
Line Loop(147)={197,131,198,-194};
Plane Surface(147)={147};
Line Loop(148)={-196,178,130,-197};
Plane Surface(148)={148};
Line Loop(149)={129,-177,-195,-198};
Plane Surface(149)={149};
Line Loop(150)={199,200,-196,179};
Plane Surface(150)={150};
Line Loop(151)={180,136,201,-199};
Plane Surface(151)={151};
Line Loop(152)={-134,-197,-200,-201};
Plane Surface(152)={152};
Line Loop(153)={-139,201,202,203};
Plane Surface(153)={153};
Line Loop(154)={-203,204,-188,-138};
Plane Surface(154)={154};
Line Loop(155)={-204,-202,-199,-186};
Plane Surface(155)={155};
Line Loop(156)={141,-203,205,206};
Plane Surface(156)={156};
Line Loop(157)={-206,207,190,140};
Plane Surface(157)={157};
Line Loop(158)={-205,204,189,-207};
Plane Surface(158)={158};
Line Loop(159)={208,209,210,-194};
Plane Surface(159)={159};
Line Loop(160)={197,147,211,-208};
Plane Surface(160)={160};
Line Loop(161)={212,-209,-211,-144};
Plane Surface(161)={161};
Line Loop(162)={-146,198,-210,-212};
Plane Surface(162)={162};
Line Loop(163)={213,214,-148,211};
Plane Surface(163)={163};
Line Loop(164)={-208,-200,215,-213};
Plane Surface(164)={164};
Line Loop(165)={-214,-215,-201,-150};
Plane Surface(165)={165};
Line Loop(166)={-153,-214,216,217};
Plane Surface(166)={166};
Line Loop(167)={-217,218,203,-152};
Plane Surface(167)={167};
Line Loop(168)={-216,-215,202,-218};
Plane Surface(168)={168};
Line Loop(169)={219,220,218,205};
Plane Surface(169)={169};
Line Loop(170)={206,154,221,-219};
Plane Surface(170)={170};
Line Loop(171)={-221,155,-217,-220};
Plane Surface(171)={171};
Line Loop(172)={-161,222,223,-211};
Plane Surface(172)={172};
Line Loop(173)={224,225,-222,-158};
Plane Surface(173)={173};
Line Loop(174)={-160,212,226,-224};
Plane Surface(174)={174};
Line Loop(175)={-223,-225,-226,-209};
Plane Surface(175)={175};
Line Loop(176)={223,213,227,228};
Plane Surface(176)={176};
Line Loop(177)={-228,229,164,222};
Plane Surface(177)={177};
Line Loop(178)={214,-163,-229,-227};
Plane Surface(178)={178};
Line Loop(179)={230,231,217,165};
Plane Surface(179)={179};
Line Loop(180)={166,-229,232,-230};
Plane Surface(180)={180};
Line Loop(181)={216,-231,-232,-227};
Plane Surface(181)={181};
Line Loop(182)={233,234,-221,-169};
Plane Surface(182)={182};
Line Loop(183)={-170,230,235,-233};
Plane Surface(183)={183};
Line Loop(184)={-235,231,-220,-234};
Plane Surface(184)={184};
Line Loop(185)={236,237,174,238};
Plane Surface(185)={185};
Line Loop(186)={239,240,241,-236};
Plane Surface(186)={186};
Line Loop(187)={-238,171,242,-239};
Plane Surface(187)={187};
Line Loop(188)={-242,172,243,-240};
Plane Surface(188)={188};
Line Loop(189)={-243,173,-237,-241};
Plane Surface(189)={189};
Line Loop(190)={-182,244,245,246};
Plane Surface(190)={190};
Line Loop(191)={-246,247,-242,-183};
Plane Surface(191)={191};
Line Loop(192)={-179,243,248,-244};
Plane Surface(192)={192};
Line Loop(193)={-248,-240,-247,-245};
Plane Surface(193)={193};
Line Loop(194)={244,249,250,186};
Plane Surface(194)={194};
Line Loop(195)={251,252,185,-250};
Plane Surface(195)={195};
Line Loop(196)={-249,245,253,-251};
Plane Surface(196)={196};
Line Loop(197)={-252,-253,246,184};
Plane Surface(197)={197};
Line Loop(198)={-193,254,255,252};
Plane Surface(198)={198};
Line Loop(199)={256,257,-189,-250};
Plane Surface(199)={199};
Line Loop(200)={251,-255,258,-256};
Plane Surface(200)={200};
Line Loop(201)={-257,-258,-254,-191};
Plane Surface(201)={201};
Line Loop(202)={259,260,-243,196};
Plane Surface(202)={202};
Line Loop(203)={194,261,262,-259};
Plane Surface(203)={203};
Line Loop(204)={263,-241,-260,-262};
Plane Surface(204)={204};
Line Loop(205)={-261,195,-237,-263};
Plane Surface(205)={205};
Line Loop(206)={264,-244,199,265};
Plane Surface(206)={206};
Line Loop(207)={266,260,248,-264};
Plane Surface(207)={207};
Line Loop(208)={-265,200,259,-266};
Plane Surface(208)={208};
Line Loop(209)={267,268,-202,265};
Plane Surface(209)={209};
Line Loop(210)={264,249,269,-267};
Plane Surface(210)={210};
Line Loop(211)={-269,250,-204,-268};
Plane Surface(211)={211};
Line Loop(212)={-207,270,271,257};
Plane Surface(212)={212};
Line Loop(213)={-271,272,-269,256};
Plane Surface(213)={213};
Line Loop(214)={-270,-205,-268,-272};
Plane Surface(214)={214};
Line Loop(215)={261,273,274,210};
Plane Surface(215)={215};
Line Loop(216)={-259,208,275,276};
Plane Surface(216)={216};
Line Loop(217)={-276,277,-273,262};
Plane Surface(217)={217};
Line Loop(218)={209,-274,-277,-275};
Plane Surface(218)={218};
Line Loop(219)={278,-213,275,279};
Plane Surface(219)={219};
Line Loop(220)={280,-265,215,-278};
Plane Surface(220)={220};
Line Loop(221)={-279,276,-266,-280};
Plane Surface(221)={221};
Line Loop(222)={268,-218,281,282};
Plane Surface(222)={222};
Line Loop(223)={-282,283,280,267};
Plane Surface(223)={223};
Line Loop(224)={-283,-281,-216,-278};
Plane Surface(224)={224};
Line Loop(225)={-272,284,285,282};
Plane Surface(225)={225};
Line Loop(226)={281,-285,286,220};
Plane Surface(226)={226};
Line Loop(227)={-284,-270,219,-286};
Plane Surface(227)={227};
Line Loop(228)={-275,-223,287,288};
Plane Surface(228)={228};
Line Loop(229)={-288,289,290,-277};
Plane Surface(229)={229};
Line Loop(230)={-274,-290,291,-226};
Plane Surface(230)={230};
Line Loop(231)={-289,-287,-225,-291};
Plane Surface(231)={231};
Line Loop(232)={279,292,293,288};
Plane Surface(232)={232};
Line Loop(233)={294,-292,278,227};
Plane Surface(233)={233};
Line Loop(234)={228,287,-293,-294};
Plane Surface(234)={234};
Line Loop(235)={-281,-231,295,296};
Plane Surface(235)={235};
Line Loop(236)={-296,297,-292,-283};
Plane Surface(236)={236};
Line Loop(237)={-295,-232,294,-297};
Plane Surface(237)={237};
Line Loop(238)={295,298,299,-235};
Plane Surface(238)={238};
Line Loop(239)={296,-285,300,-298};
Plane Surface(239)={239};
Line Loop(240)={286,-234,-299,-300};
Plane Surface(240)={240};
Surface Loop(0)={1,2,3,4,5,6};
Volume(0)={0};
Physical Volume("Cell 1")={0};
Surface Loop(1)={7,8,-6,9,10,11};
Volume(1)={1};
Physical Volume("Cell 2")={1};
Surface Loop(2)={12,13,-10,14,15,16};
Volume(2)={2};
Physical Volume("Cell 3")={2};
Surface Loop(3)={17,18,-14,19,20,21};
Volume(3)={3};
Physical Volume("Cell 4")={3};
Surface Loop(4)={22,23,24,25,26,-4};
Volume(4)={4};
Physical Volume("Cell 5")={4};
Surface Loop(5)={27,28,29,-24,30,-9};
Volume(5)={5};
Physical Volume("Cell 6")={5};
Surface Loop(6)={31,32,33,-28,-15,34};
Volume(6)={6};
Physical Volume("Cell 7")={6};
Surface Loop(7)={-32,-17,35,36,37,38};
Volume(7)={7};
Physical Volume("Cell 8")={7};
Surface Loop(8)={39,40,-23,41,42,43};
Volume(8)={8};
Physical Volume("Cell 9")={8};
Surface Loop(9)={44,45,-39,46,47,-27};
Volume(9)={9};
Physical Volume("Cell 10")={9};
Surface Loop(10)={48,49,-31,50,51,-46};
Volume(10)={10};
Physical Volume("Cell 11")={10};
Surface Loop(11)={52,-48,53,54,-37,55};
Volume(11)={11};
Physical Volume("Cell 12")={11};
Surface Loop(12)={56,-41,57,58,59,60};
Volume(12)={12};
Physical Volume("Cell 13")={12};
Surface Loop(13)={61,-60,62,-44,63,64};
Volume(13)={13};
Physical Volume("Cell 14")={13};
Surface Loop(14)={65,-64,66,-50,67,68};
Volume(14)={14};
Physical Volume("Cell 15")={14};
Surface Loop(15)={69,-67,70,71,-52,72};
Volume(15)={15};
Physical Volume("Cell 16")={15};
Surface Loop(16)={73,74,75,76,-1,77};
Volume(16)={16};
Physical Volume("Cell 17")={16};
Surface Loop(17)={78,-7,79,80,-76,81};
Volume(17)={17};
Physical Volume("Cell 18")={17};
Surface Loop(18)={82,83,84,-78,85,-12};
Volume(18)={18};
Physical Volume("Cell 19")={18};
Surface Loop(19)={86,87,88,89,-18,-83};
Volume(19)={19};
Physical Volume("Cell 20")={19};
Surface Loop(20)={90,91,92,93,-22,-77};
Volume(20)={20};
Physical Volume("Cell 21")={20};
Surface Loop(21)={-93,-80,-29,94,95,96};
Volume(21)={21};
Physical Volume("Cell 22")={21};
Surface Loop(22)={97,98,-33,-85,99,-96};
Volume(22)={22};
Physical Volume("Cell 23")={22};
Surface Loop(23)={100,-89,-97,101,102,-38};
Volume(23)={23};
Physical Volume("Cell 24")={23};
Surface Loop(24)={103,104,-43,-92,105,106};
Volume(24)={24};
Physical Volume("Cell 25")={24};
Surface Loop(25)={107,-106,-45,-94,108,109};
Volume(25)={25};
Physical Volume("Cell 26")={25};
Surface Loop(26)={110,111,-51,-98,112,-108};
Volume(26)={26};
Physical Volume("Cell 27")={26};
Surface Loop(27)={113,-102,-110,114,115,-54};
Volume(27)={27};
Physical Volume("Cell 28")={27};
Surface Loop(28)={-56,116,117,118,119,-103};
Volume(28)={28};
Physical Volume("Cell 29")={28};
Surface Loop(29)={120,-107,121,122,-118,-61};
Volume(29)={29};
Physical Volume("Cell 30")={29};
Surface Loop(30)={123,-111,-120,124,125,-65};
Volume(30)={30};
Physical Volume("Cell 31")={30};
Surface Loop(31)={-115,126,-69,-125,127,128};
Volume(31)={31};
Physical Volume("Cell 32")={31};
Surface Loop(32)={129,130,131,132,133,-73};
Volume(32)={32};
Physical Volume("Cell 33")={32};
Surface Loop(33)={134,-133,-81,135,136,137};
Volume(33)={33};
Physical Volume("Cell 34")={33};
Surface Loop(34)={138,139,-135,-82,140,141};
Volume(34)={34};
Physical Volume("Cell 35")={34};
Surface Loop(35)={142,-140,-86,143,144,145};
Volume(35)={35};
Physical Volume("Cell 36")={35};
Surface Loop(36)={146,147,148,-90,149,-132};
Volume(36)={36};
Physical Volume("Cell 37")={36};
Surface Loop(37)={-148,-134,-95,150,151,152};
Volume(37)={37};
Physical Volume("Cell 38")={37};
Surface Loop(38)={153,-99,154,155,-141,-151};
Volume(38)={38};
Physical Volume("Cell 39")={38};
Surface Loop(39)={156,-100,157,-142,158,-154};
Volume(39)={39};
Physical Volume("Cell 40")={39};
Surface Loop(40)={159,160,-147,161,162,-105};
Volume(40)={40};
Physical Volume("Cell 41")={40};
Surface Loop(41)={163,164,-160,-152,-109,165};
Volume(41)={41};
Physical Volume("Cell 42")={41};
Surface Loop(42)={166,-112,167,168,-165,-153};
Volume(42)={42};
Physical Volume("Cell 43")={42};
Surface Loop(43)={-167,-156,-113,169,170,171};
Volume(43)={43};
Physical Volume("Cell 44")={43};
Surface Loop(44)={172,-119,-161,173,174,175};
Volume(44)={44};
Physical Volume("Cell 45")={44};
Surface Loop(45)={176,-172,177,178,-163,-121};
Volume(45)={45};
Physical Volume("Cell 46")={45};
Surface Loop(46)={179,180,-123,-166,181,-178};
Volume(46)={46};
Physical Volume("Cell 47")={46};
Surface Loop(47)={-128,182,183,184,-171,-179};
Volume(47)={47};
Physical Volume("Cell 48")={47};
Surface Loop(48)={185,186,187,188,189,-129};
Volume(48)={48};
Physical Volume("Cell 49")={48};
Surface Loop(49)={190,-137,191,192,-188,193};
Volume(49)={49};
Physical Volume("Cell 50")={49};
Surface Loop(50)={194,-190,-138,195,196,197};
Volume(50)={50};
Physical Volume("Cell 51")={50};
Surface Loop(51)={-195,198,-145,199,200,201};
Volume(51)={51};
Physical Volume("Cell 52")={51};
Surface Loop(52)={202,203,-146,-189,204,205};
Volume(52)={52};
Physical Volume("Cell 53")={52};
Surface Loop(53)={206,207,208,-202,-192,-150};
Volume(53)={53};
Physical Volume("Cell 54")={53};
Surface Loop(54)={209,210,-206,211,-155,-194};
Volume(54)={54};
Physical Volume("Cell 55")={54};
Surface Loop(55)={-199,212,-158,213,214,-211};
Volume(55)={55};
Physical Volume("Cell 56")={55};
Surface Loop(56)={-203,-159,215,216,217,218};
Volume(56)={56};
Physical Volume("Cell 57")={56};
Surface Loop(57)={219,220,221,-208,-216,-164};
Volume(57)={57};
Physical Volume("Cell 58")={57};
Surface Loop(58)={-220,-209,-168,222,223,224};
Volume(58)={58};
Physical Volume("Cell 59")={58};
Surface Loop(59)={-222,225,-214,226,-169,227};
Volume(59)={59};
Physical Volume("Cell 60")={59};
Surface Loop(60)={228,-218,229,-175,230,231};
Volume(60)={60};
Physical Volume("Cell 61")={60};
Surface Loop(61)={-228,232,-219,233,234,-176};
Volume(61)={61};
Physical Volume("Cell 62")={61};
Surface Loop(62)={235,-224,236,-233,237,-181};
Volume(62)={62};
Physical Volume("Cell 63")={62};
Surface Loop(63)={-235,-184,238,239,-226,240};
Volume(63)={63};
Physical Volume("Cell 64")={63};
