Point(0)={0,0,0};
Point(1)={3,0,0};
Point(2)={3,2,0};
Point(3)={1.5,4,0};
Point(4)={0,4,0};
Point(5)={0,0,3,1};
Line(1)={0,1};
Line(2)={1,2};
Line(3)={2,3};
Line(4)={3,4};
Line(5)={4,0};
Line(6)={5,0};
Line(7)={5,1};
Line(8)={5,2};
Line(9)={5,3};
Line(10)={5,4};
Line Loop(1)={1,2,3,4,5};
Plane Surface(1)={1};
Line Loop(2)={1,-7,6};
Plane Surface(2)={2};
Line Loop(3)={2,-8,7};
Plane Surface(3)={3};
Line Loop(4)={3,-9,8};
Plane Surface(4)={4};
Line Loop(5)={4,-10,9};
Plane Surface(5)={5};
Line Loop(6)={5,-6,10};
Plane Surface(6)={6};
Surface Loop(0)={1,-2,-3,-4,-5,-6};
Volume(0)={0};
Physical Volume("Cell 1")={0};