Point(0)={0.67644,0.403669,0.880505,0.0469106};
Point(1)={0.767152,0.389841,0.67196,0.0424791};
Point(2)={0.985052,0.497659,0.809859,0.0170099};
Point(3)={1,0.461416,0.767709,0.0511107};
Point(4)={1,0.489198,0.81061,0.0135755};
Point(5)={0.990455,0.0319992,0.958486,0.0223223};
Point(6)={1,0.0799806,0.941846,0.0516743};
Point(7)={0.914253,0.520494,0.811828,0.0686313};
Point(8)={0.700392,0.408542,0.804381,0.0799522};
Point(9)={0.767634,0.428581,0.65454,0.0424791};
Point(10)={0.871037,0.485447,0.68561,0.0705325};
Point(11)={0.900604,0.506835,0.745969,0.0686313};
Point(12)={1,1,0.545252,0.102851};
Point(13)={1,0.686677,0,0.0150703};
Point(14)={1,0.631826,0.231425,0.0736543};
Point(15)={1,1,0,0.313323};
Point(16)={0.640827,0.659845,0.342961,0.0207301};
Point(17)={1,0.909157,0.497024,0.102851};
Point(18)={0.615434,0.699853,0.267865,0.080311};
Point(19)={0.914662,0.625564,0.199115,0.0914646};
Point(20)={1,0.635801,0.304972,0.0736543};
Point(21)={0.870463,1,0.574601,0.132821};
Point(22)={0.717279,0.624117,0.365608,0.0362433};
Point(23)={0.632742,0.68725,0.34527,0.0250327};
Point(24)={0.581269,1,0,0.157186};
Point(25)={0.634353,0.708851,0.357817,0.00869888};
Point(26)={0.550366,0.845882,0,0.0123239};
Point(27)={0.730211,1,0.478132,0.170225};
Point(28)={0.653858,0.650035,0.355755,0.0207301};
Point(29)={0.77536,0.755838,0.46652,0.0997475};
Point(30)={0.661718,0.66164,0.371894,0.0213758};
Point(31)={0.637364,0.713851,0.364267,0.00869888};
Point(32)={0.550988,0.833574,0,0.0123239};
Point(33)={0.985126,0.684251,0,0.0150703};
Point(34)={0.732423,0.671924,0.422324,0.0602164};
Point(35)={0.747504,0.626788,0.385429,0.0362433};
Point(36)={0.279808,0.87631,0,0.0116341};
Point(37)={0.212412,0.90743,0.377003,0.0531302};
Point(38)={0.397463,0.546086,0.116538,0.13326};
Point(39)={0.00697921,0.681106,0.322417,0.0091743};
Point(40)={0.178976,0.791139,0.426086,0.117268};
Point(41)={0.288111,0.884459,0,0.0116341};
Point(42)={0.424901,0.702101,5.55112e-17,0.09839};
Point(43)={0.0075758,0.690675,0.316074,0.00764025};
Point(44)={0.452538,0.449944,0.288709,0.0224982};
Point(45)={0.616067,0.622095,0.345895,0.0452409};
Point(46)={0.483034,0.474689,0.306675,0.0431869};
Point(47)={0.517919,0.566159,0.360709,0.111819};
Point(48)={0.0103306,0.669243,0.334657,0.0157152};
Point(49)={0.24036,0.890807,0.41902,0.0531302};
Point(50)={0.481949,0.782264,0,0.0860177};
Point(51)={0.0666999,0.628726,0.310499,0.0115171};
Point(52)={0.0612261,0.627343,0.320537,0.0115171};
Point(53)={0.446651,0.162928,0.348947,0.0471497};
Point(54)={0.436387,0.650384,0.690775,0.0527412};
Point(55)={0.291127,0.381062,0.636606,0.0299254};
Point(56)={0.394566,0.193554,0.488929,0.118951};
Point(57)={0.459143,0.430551,0.298007,0.0224982};
Point(58)={0.401138,0.33465,0.774375,0.0414031};
Point(59)={0.767683,0.480564,0.545053,0.000649119};
Point(60)={0.736546,0.626414,0.542013,0.0621643};
Point(61)={0.411456,0.152546,0.378555,0.0471497};
Point(62)={0.565849,0.48745,0.853728,0.108986};
Point(63)={0.72638,0.674607,0.497376,0.0664706};
Point(64)={0.582677,0.281667,0.398902,0.187343};
Point(65)={0.546958,0.655849,0.823925,0.018101};
Point(66)={0.708729,0.675756,0.567625,0.0621643};
Point(67)={0.408768,0.641125,0.744715,0.0130686};
Point(68)={0.551562,0.668903,0.812262,0.018101};
Point(69)={0.416538,0.650325,0.739638,0.0130686};
Point(70)={0.304579,0.361137,0.654426,0.0299254};
Point(71)={0.325899,0.298435,0.424313,0.175206};
Point(72)={0.369912,0.352752,0.754091,0.0414031};
Point(73)={0.330963,0.4966,0.715286,0.145349};
Point(74)={0.475687,0.363803,0.295062,0.0688309};
Point(75)={0.773656,0.495012,0.530791,0.00762505};
Point(76)={0.770527,0.530378,0.436727,0.100541};
Point(77)={0.603209,0.421729,0.932233,0.0306627};
Point(78)={0.625154,0.678987,1,0.0212228};
Point(79)={0.309079,0.27568,1,0.215145};
Point(80)={0.513746,0.209358,1,0.0925756};
Point(81)={0.167457,0.659819,1,0.138233};
Point(82)={0.599842,0.394204,0.945319,0.0306627};
Point(83)={0.490614,0.248578,0.919396,0.0925756};
Point(84)={0.260059,0.637473,0.767547,0.150495};
Point(85)={0.628825,0.567129,1,0.111918};
Point(86)={0.593984,0.334095,1,0.0814703};
Point(87)={0.889214,1,1,0.110786};
Point(88)={0.768559,0.805012,1,0.0698931};
Point(89)={0.810578,0.749161,1,0.0698931};
Point(90)={1,1,1,0.110786};
Point(91)={1,0.693615,1,0.197398};
Point(92)={0.807558,1,0.816981,0.200408};
Point(93)={0.706056,0.814255,0.847092,0.129153};
Point(94)={1,0.501047,0.817235,0.0135755};
Point(95)={0,0.585713,0,0.193104};
Point(96)={0.149723,0.463762,0,0.193104};
Point(97)={0,0.852899,0,0.147101};
Point(98)={0,0.685547,0.318451,0.00602338};
Point(99)={0,0.690547,0.315092,0.00602338};
Point(100)={0.393315,0.481587,0,0.13326};
Point(101)={0,0,0.852449,0.147551};
Point(102)={0,0.213315,0.93566,0.0663299};
Point(103)={0,0.197192,1,0.0663299};
Point(104)={0,0,1,0.147551};
Point(105)={0.578149,0,1,0.21904};
Point(106)={0.479521,0,0.418166,0.0684488};
Point(107)={0.449726,0.0241568,0.361475,0.00722973};
Point(108)={0.450429,0,0.351269,0.000830983};
Point(109)={0.514791,0,0.538575,0.0437694};
Point(110)={0,0,0,0.103269};
Point(111)={0.481005,1.11022e-16,0,0.0862004};
Point(112)={0.436805,0.0701759,0.34968,0.0430326};
Point(113)={0.43355,5.55112e-17,0.32179,0.0331926};
Point(114)={2.77556e-17,0.555779,0.385087,0.113685};
Point(115)={0.491322,0.0982626,0,0.0474189};
Point(116)={2.77556e-17,0.45813,0.443654,0.113866};
Point(117)={0,-5.55112e-17,0.264391,0.264391};
Point(118)={0,0.103269,0,0.103269};
Point(119)={0.242348,1,0.395721,0.0990748};
Point(120)={0,1,0,0.147101};
Point(121)={0,1,0.364966,0.244292};
Point(122)={0.33069,1,0,0.0855482};
Point(123)={0.376368,1,0.71494,0.0904618};
Point(124)={0.375151,1,0.499593,0.00879674};
Point(125)={0.302819,1,0.64518,0.0488752};
Point(126)={0.389213,0.68447,0.728824,0.0450495};
Point(127)={0.289641,0.953713,0.653704,0.0488752};
Point(128)={0.301389,0.871864,0.702023,0.0771592};
Point(129)={0.315141,1,0.582156,0.0642163};
Point(130)={0.356722,0.914083,0.735329,0.0771592};
Point(131)={0.60645,0.732043,0.847478,0.0907724};
Point(132)={5.55112e-17,0.661695,0.343783,0.0157152};
Point(133)={0.0903254,0.725002,0.754076,0.00582573};
Point(134)={0.199396,0.804445,0.702583,0.00395756};
Point(135)={0,0.659826,0.684887,0.131125};
Point(136)={0.202362,0.80272,0.704557,0.00395756};
Point(137)={0.148082,0.767065,0.727687,0.0682683};
Point(138)={0,0.506916,0.600029,0.163808};
Point(139)={0.416239,1,-5.55112e-17,0.0855482};
Point(140)={0.367404,1,0.495426,0.00879674};
Point(141)={0.637107,0.4086,0.905589,0.04507};
Point(142)={0.636976,0.696612,1,0.0212228};
Point(143)={0.777999,0.491656,0.536084,0.00762505};
Point(144)={0.767872,0.480186,0.545545,0.000649119};
Point(145)={0.311048,1,0.489274,0.0566912};
Point(146)={0.044178,0.722355,1,0.0445865};
Point(147)={0.31891,0.914906,1,0.0866905};
Point(148)={0.086129,0.726745,0.757722,0.00582573};
Point(149)={-1.38778e-17,1,0.780827,0.219173};
Point(150)={0,0.736898,0.795728,0.0946878};
Point(151)={0.450297,0,0.350448,0.000830983};
Point(152)={0.448433,0.0293237,0.356586,0.00722973};
Point(153)={1,0,0,0.160283};
Point(154)={1,0,0.160283,0.151751};
Point(155)={0.528308,0.127937,0,0.0474189};
Point(156)={0.567206,0,0,0.0862004};
Point(157)={0,1,1,0.219173};
Point(158)={0,0.728376,1,0.0445865};
Point(159)={0.335471,1,1,0.0866905};
Point(160)={0.945363,0,0.767818,0.056873};
Point(161)={0.766339,0.350894,0.619646,0.0652249};
Point(162)={0.53801,0,0.501472,0.0437694};
Point(163)={1,0.42934,0.507434,0.106419};
Point(164)={1,0.465834,0.407469,0.106419};
Point(165)={1,0,0.752029,0.056873};
Point(166)={1,0,0.312034,0.151751};
Point(167)={1,0,0.97819,0.0177513};
Point(168)={0.970634,0,1,0.0293658};
Point(169)={1,0.0136103,0.966794,0.0177513};
Point(170)={1,0,0.949457,0.0220413};
Point(171)={1,0,1,0.0218101};
Line(11)={2,4};
Line(17)={3,4};
Line(9)={0,5};
Line(1)={1,5};
Line(3)={6,3};
Line(12)={4,6};
Line(2)={5,6};
Line(13)={0,7};
Line(14)={7,2};
Line(8)={8,0};
Line(7)={1,8};
Line(6)={9,1};
Line(10)={9,8};
Line(4)={3,10};
Line(5)={10,9};
Line(15)={2,11};
Line(18)={7,11};
Line(16)={11,10};
Line(22)={14,13};
Line(31)={12,15};
Line(23)={13,15};
Line(30)={17,12};
Line(41)={18,16};
Line(21)={19,14};
Line(28)={14,20};
Line(29)={20,17};
Line(35)={12,21};
Line(32)={19,22};
Line(42)={16,23};
Line(47)={18,23};
Line(24)={15,24};
Line(43)={23,25};
Line(25)={24,26};
Line(52)={26,25};
Line(36)={21,27};
Line(37)={27,24};
Line(38)={16,28};
Line(39)={28,22};
Line(50)={29,17};
Line(51)={29,21};
Line(46)={30,28};
Line(44)={25,31};
Line(54)={31,27};
Line(45)={31,30};
Line(40)={32,18};
Line(26)={26,32};
Line(19)={13,33};
Line(20)={33,19};
Line(27)={32,33};
Line(49)={34,29};
Line(53)={34,30};
Line(34)={35,20};
Line(33)={22,35};
Line(48)={35,34};
Line(66)={36,41};
Line(61)={37,41};
Line(76)={42,36};
Line(72)={42,38};
Line(65)={43,36};
Line(60)={43,37};
Line(59)={39,43};
Line(67)={38,44};
Line(70)={45,16};
Line(83)={45,28};
Line(68)={44,46};
Line(69)={46,45};
Line(79)={47,40};
Line(78)={45,47};
Line(81)={47,46};
Line(58)={48,39};
Line(57)={40,48};
Line(64)={23,49};
Line(55)={37,49};
Line(56)={49,40};
Line(63)={50,18};
Line(260)={50,32};
Line(62)={41,50};
Line(71)={50,42};
Line(73)={38,51};
Line(77)={39,51};
Line(75)={52,44};
Line(80)={48,52};
Line(74)={51,52};
Line(84)={30,54};
Line(82)={54,47};
Line(198)={44,57};
Line(91)={57,46};
Line(104)={56,58};
Line(143)={60,11};
Line(109)={53,61};
Line(100)={56,61};
Line(105)={58,62};
Line(106)={62,59};
Line(142)={29,63};
Line(92)={34,63};
Line(121)={60,63};
Line(108)={64,53};
Line(107)={59,64};
Line(113)={65,62};
Line(118)={66,60};
Line(93)={63,66};
Line(112)={67,65};
Line(117)={65,68};
Line(94)={66,68};
Line(85)={54,69};
Line(86)={69,67};
Line(95)={68,69};
Line(98)={70,55};
Line(99)={70,56};
Line(89)={55,71};
Line(90)={71,57};
Line(101)={61,71};
Line(110)={72,58};
Line(97)={72,70};
Line(88)={73,55};
Line(87)={67,73};
Line(96)={73,72};
Line(103)={74,22};
Line(111)={53,74};
Line(102)={57,74};
Line(114)={59,75};
Line(119)={60,75};
Line(120)={35,76};
Line(116)={76,64};
Line(115)={75,76};
Line(131)={62,77};
Line(125)={65,78};
Line(133)={79,72};
Line(129)={80,79};
Line(122)={78,81};
Line(130)={79,81};
Line(139)={82,77};
Line(136)={83,58};
Line(135)={80,83};
Line(138)={82,83};
Line(124)={84,67};
Line(134)={73,84};
Line(123)={81,84};
Line(132)={77,85};
Line(126)={78,85};
Line(128)={86,80};
Line(137)={86,82};
Line(127)={85,86};
Line(155)={87,88};
Line(147)={89,7};
Line(247)={85,89};
Line(146)={88,89};
Line(148)={12,90};
Line(149)={90,87};
Line(156)={91,89};
Line(153)={91,90};
Line(151)={92,21};
Line(150)={87,92};
Line(144)={66,93};
Line(145)={93,88};
Line(154)={93,92};
Line(140)={2,94};
Line(337)={4,94};
Line(141)={94,17};
Line(152)={94,91};
Line(160)={51,96};
Line(157)={96,95};
Line(163)={36,97};
Line(164)={97,95};
Line(159)={98,39};
Line(158)={95,98};
Line(166)={43,99};
Line(167)={99,97};
Line(168)={99,98};
Line(165)={38,100};
Line(162)={100,42};
Line(161)={96,100};
Line(172)={70,102};
Line(173)={102,101};
Line(181)={79,103};
Line(179)={102,103};
Line(174)={101,104};
Line(180)={103,104};
Line(182)={80,105};
Line(175)={104,105};
Line(171)={107,56};
Line(184)={107,106};
Line(169)={101,108};
Line(178)={106,108};
Line(170)={108,107};
Line(183)={83,109};
Line(176)={105,109};
Line(177)={109,106};
Line(190)={111,110};
Line(187)={112,53};
Line(201)={61,112};
Line(185)={111,113};
Line(186)={113,112};
Line(196)={52,114};
Line(188)={74,115};
Line(193)={115,100};
Line(189)={115,111};
Line(199)={71,116};
Line(200)={116,114};
Line(283)={117,101};
Line(191)={110,117};
Line(192)={117,113};
Line(202)={117,116};
Line(295)={95,118};
Line(194)={96,118};
Line(195)={118,110};
Line(197)={114,118};
Line(210)={119,37};
Line(205)={120,97};
Line(207)={121,99};
Line(209)={119,121};
Line(206)={120,121};
Line(203)={41,122};
Line(208)={122,119};
Line(204)={122,120};
Line(211)={123,92};
Line(218)={124,27};
Line(222)={31,124};
Line(215)={123,125};
Line(225)={126,54};
Line(226)={126,69};
Line(221)={127,125};
Line(224)={128,126};
Line(220)={128,127};
Line(217)={129,124};
Line(216)={125,129};
Line(223)={129,127};
Line(214)={130,123};
Line(219)={130,128};
Line(227)={131,68};
Line(212)={93,131};
Line(213)={131,130};
Line(232)={48,132};
Line(272)={98,132};
Line(233)={132,114};
Line(228)={84,133};
Line(234)={40,134};
Line(278)={127,134};
Line(237)={135,132};
Line(236)={133,135};
Line(231)={136,126};
Line(269)={136,128};
Line(241)={136,134};
Line(229)={133,137};
Line(235)={134,137};
Line(230)={137,136};
Line(239)={138,55};
Line(285)={102,138};
Line(238)={116,138};
Line(240)={138,135};
Line(245)={139,24};
Line(244)={26,139};
Line(259)={139,122};
Line(243)={140,25};
Line(246)={124,140};
Line(242)={139,140};
Line(248)={0,141};
Line(253)={141,8};
Line(249)={141,77};
Line(319)={141,82};
Line(250)={78,142};
Line(251)={142,88};
Line(252)={142,131};
Line(257)={143,10};
Line(256)={75,143};
Line(254)={9,144};
Line(255)={144,59};
Line(258)={143,144};
Line(263)={49,145};
Line(262)={145,119};
Line(276)={145,129};
Line(261)={140,145};
Line(271)={146,81};
Line(265)={147,130};
Line(264)={142,147};
Line(266)={147,146};
Line(270)={133,148};
Line(268)={148,137};
Line(267)={146,148};
Line(273)={121,149};
Line(277)={125,149};
Line(275)={150,135};
Line(279)={148,150};
Line(274)={149,150};
Line(284)={108,151};
Line(280)={113,151};
Line(310)={152,64};
Line(286)={107,152};
Line(282)={152,112};
Line(281)={151,152};
Line(287)={153,13};
Line(292)={154,14};
Line(291)={153,154};
Line(294)={155,19};
Line(288)={33,155};
Line(317)={115,155};
Line(331)={156,111};
Line(290)={156,153};
Line(293)={156,154};
Line(289)={155,156};
Line(299)={157,149};
Line(330)={158,103};
Line(300)={146,158};
Line(302)={158,150};
Line(301)={158,157};
Line(318)={159,87};
Line(297)={159,123};
Line(296)={147,159};
Line(298)={159,157};
Line(321)={161,1};
Line(307)={161,144};
Line(306)={160,161};
Line(309)={162,106};
Line(320)={109,162};
Line(314)={162,160};
Line(308)={161,162};
Line(335)={3,163};
Line(303)={143,163};
Line(333)={164,20};
Line(313)={164,76};
Line(316)={164,163};
Line(305)={165,160};
Line(304)={163,165};
Line(311)={151,166};
Line(332)={166,154};
Line(312)={166,164};
Line(315)={165,166};
Line(325)={168,86};
Line(326)={168,105};
Line(324)={167,168};
Line(322)={5,169};
Line(334)={6,169};
Line(323)={169,167};
Line(327)={160,170};
Line(336)={165,170};
Line(329)={167,170};
Line(328)={170,169};
Line(340)={91,171};
Line(339)={171,167};
Line(338)={168,171};
Line Loop(1)={1,2,3,4,5,6};
Plane Surface(1)={1};
Line Loop(2)={7,8,9,-1};
Plane Surface(2)={2};
Line Loop(3)={-6,10,-7};
Plane Surface(3)={3};
Line Loop(4)={11,12,-2,-9,13,14};
Plane Surface(4)={4};
Line Loop(5)={15,16,-4,17,-11};
Plane Surface(5)={5};
Line Loop(6)={-14,18,-15};
Plane Surface(6)={6};
Line Loop(7)={-3,-12,-17};
Plane Surface(7)={7};
Line Loop(8)={-13,-8,-10,-5,-16,-18};
Plane Surface(8)={8};
Line Loop(9)={19,20,21,22};
Plane Surface(9)={9};
Line Loop(10)={23,24,25,26,27,-19};
Plane Surface(10)={10};
Line Loop(11)={-22,28,29,30,31,-23};
Plane Surface(11)={11};
Line Loop(12)={-21,32,33,34,-28};
Plane Surface(12)={12};
Line Loop(13)={-31,35,36,37,-24};
Plane Surface(13)={13};
Line Loop(14)={38,39,-32,-20,-27,40,41};
Plane Surface(14)={14};
Line Loop(15)={42,43,44,45,46,-38};
Plane Surface(15)={15};
Line Loop(16)={-41,47,-42};
Plane Surface(16)={16};
Line Loop(17)={-29,-34,48,49,50};
Plane Surface(17)={17};
Line Loop(18)={-50,51,-35,-30};
Plane Surface(18)={18};
Line Loop(19)={-40,-26,52,-43,-47};
Plane Surface(19)={19};
Line Loop(20)={-51,-49,53,-45,54,-36};
Plane Surface(20)={20};
Line Loop(21)={-39,-46,-53,-48,-33};
Plane Surface(21)={21};
Line Loop(22)={-37,-54,-44,-52,-25};
Plane Surface(22)={22};
Line Loop(23)={55,56,57,58,59,60};
Plane Surface(23)={23};
Line Loop(24)={61,62,63,47,64,-55};
Plane Surface(24)={24};
Line Loop(25)={-60,65,66,-61};
Plane Surface(25)={25};
Line Loop(26)={67,68,69,70,-41,-63,71,72};
Plane Surface(26)={26};
Line Loop(27)={73,74,75,-67};
Plane Surface(27)={27};
Line Loop(28)={-72,76,-65,-59,77,-73};
Plane Surface(28)={28};
Line Loop(29)={-70,78,79,-56,-64,-42};
Plane Surface(29)={29};
Line Loop(30)={-58,80,-74,-77};
Plane Surface(30)={30};
Line Loop(31)={-79,81,-68,-75,-80,-57};
Plane Surface(31)={31};
Line Loop(32)={-66,-76,-71,-62};
Plane Surface(32)={32};
Line Loop(33)={-69,-81,-78};
Plane Surface(33)={33};
Line Loop(34)={82,-78,83,-46,84};
Plane Surface(34)={34};
Line Loop(35)={85,86,87,88,89,90,91,-81,-82};
Plane Surface(35)={35};
Line Loop(36)={-84,-53,92,93,94,95,-85};
Plane Surface(36)={36};
Line Loop(37)={-88,96,97,98};
Plane Surface(37)={37};
Line Loop(38)={-98,99,100,101,-89};
Plane Surface(38)={38};
Line Loop(39)={-83,-69,-91,102,103,-39};
Plane Surface(39)={39};
Line Loop(40)={104,105,106,107,108,109,-100};
Plane Surface(40)={40};
Line Loop(41)={-99,-97,110,-104};
Plane Surface(41)={41};
Line Loop(42)={-90,-101,-109,111,-102};
Plane Surface(42)={42};
Line Loop(43)={-110,-96,-87,112,113,-105};
Plane Surface(43)={43};
Line Loop(44)={114,115,116,-107};
Plane Surface(44)={44};
Line Loop(45)={-106,-113,117,-94,118,119,-114};
Plane Surface(45)={45};
Line Loop(46)={-48,120,-115,-119,121,-92};
Plane Surface(46)={46};
Line Loop(47)={-118,-93,-121};
Plane Surface(47)={47};
Line Loop(48)={-33,-103,-111,-108,-116,-120};
Plane Surface(48)={48};
Line Loop(49)={-112,-86,-95,-117};
Plane Surface(49)={49};
Line Loop(50)={122,123,124,112,125};
Plane Surface(50)={50};
Line Loop(51)={126,127,128,129,130,-122};
Plane Surface(51)={51};
Line Loop(52)={-125,113,131,132,-126};
Plane Surface(52)={52};
Line Loop(53)={133,-96,134,-123,-130};
Plane Surface(53)={53};
Line Loop(54)={-129,135,136,-110,-133};
Plane Surface(54)={54};
Line Loop(55)={-128,137,138,-135};
Plane Surface(55)={55};
Line Loop(56)={-136,-138,139,-131,-105};
Plane Surface(56)={56};
Line Loop(57)={-137,-127,-132,-139};
Plane Surface(57)={57};
Line Loop(58)={-124,-134,-87};
Plane Surface(58)={58};
Line Loop(59)={-15,140,141,-50,142,-121,143};
Plane Surface(59)={59};
Line Loop(60)={-143,-118,144,145,146,147,18};
Plane Surface(60)={60};
Line Loop(61)={148,149,150,151,-35};
Plane Surface(61)={61};
Line Loop(62)={-30,-141,152,153,-148};
Plane Surface(62)={62};
Line Loop(63)={-145,154,-150,155};
Plane Surface(63)={63};
Line Loop(64)={-155,-149,-153,156,-146};
Plane Surface(64)={64};
Line Loop(65)={-156,-152,-140,-14,-147};
Plane Surface(65)={65};
Line Loop(66)={-151,-154,-144,-93,-142,51};
Plane Surface(66)={66};
Line Loop(67)={157,158,159,77,160};
Plane Surface(67)={67};
Line Loop(68)={161,162,76,163,164,-157};
Plane Surface(68)={68};
Line Loop(69)={-160,-73,165,-161};
Plane Surface(69)={69};
Line Loop(70)={-163,-65,166,167};
Plane Surface(70)={70};
Line Loop(71)={-167,168,-158,-164};
Plane Surface(71)={71};
Line Loop(72)={-168,-166,-59,-159};
Plane Surface(72)={72};
Line Loop(73)={-72,-162,-165};
Plane Surface(73)={73};
Line Loop(74)={169,170,171,-99,172,173};
Plane Surface(74)={74};
Line Loop(75)={174,175,176,177,178,-169};
Plane Surface(75)={75};
Line Loop(76)={-173,179,180,-174};
Plane Surface(76)={76};
Line Loop(77)={-172,-97,-133,181,-179};
Plane Surface(77)={77};
Line Loop(78)={-181,-129,182,-175,-180};
Plane Surface(78)={78};
Line Loop(79)={-182,135,183,-176};
Plane Surface(79)={79};
Line Loop(80)={-177,-183,136,-104,-171,184};
Plane Surface(80)={80};
Line Loop(81)={-184,-170,-178};
Plane Surface(81)={81};
Line Loop(82)={185,186,187,111,188,189};
Plane Surface(82)={82};
Line Loop(83)={190,191,192,-185};
Plane Surface(83)={83};
Line Loop(84)={-189,193,-161,194,195,-190};
Plane Surface(84)={84};
Line Loop(85)={196,197,-194,-160,74};
Plane Surface(85)={85};
Line Loop(86)={75,198,-90,199,200,-196};
Plane Surface(86)={86};
Line Loop(87)={-193,-188,-102,-198,-67,165};
Plane Surface(87)={87};
Line Loop(88)={-101,201,-186,-192,202,-199};
Plane Surface(88)={88};
Line Loop(89)={-201,-109,-187};
Plane Surface(89)={89};
Line Loop(90)={-200,-202,-191,-195,-197};
Plane Surface(90)={90};
Line Loop(91)={66,203,204,205,-163};
Plane Surface(91)={91};
Line Loop(92)={206,207,167,-205};
Plane Surface(92)={92};
Line Loop(93)={-204,208,209,-206};
Plane Surface(93)={93};
Line Loop(94)={166,-207,-209,210,-60};
Plane Surface(94)={94};
Line Loop(95)={-203,-61,-210,-208};
Plane Surface(95)={95};
Line Loop(96)={211,-154,212,213,214};
Plane Surface(96)={96};
Line Loop(97)={215,216,217,218,-36,-151,-211};
Plane Surface(97)={97};
Line Loop(98)={-214,219,220,221,-215};
Plane Surface(98)={98};
Line Loop(99)={-45,222,-217,223,-220,224,225,-84};
Plane Surface(99)={99};
Line Loop(100)={-49,92,-142};
Plane Surface(100)={100};
Line Loop(101)={-222,54,-218};
Plane Surface(101)={101};
Line Loop(102)={-221,-223,-216};
Plane Surface(102)={102};
Line Loop(103)={226,-85,-225};
Plane Surface(103)={103};
Line Loop(104)={-224,-219,-213,227,95,-226};
Plane Surface(104)={104};
Line Loop(105)={-144,94,-227,-212};
Plane Surface(105)={105};
Line Loop(106)={86,-124,228,229,230,231,226};
Plane Surface(106)={106};
Line Loop(107)={232,233,-196,-80};
Plane Surface(107)={107};
Line Loop(108)={-57,234,235,-229,236,237,-232};
Plane Surface(108)={108};
Line Loop(109)={199,238,239,89};
Plane Surface(109)={109};
Line Loop(110)={-134,88,-239,240,-236,-228};
Plane Surface(110)={110};
Line Loop(111)={-231,241,-234,-79,-82,-225};
Plane Surface(111)={111};
Line Loop(112)={-237,-240,-238,200,-233};
Plane Surface(112)={112};
Line Loop(113)={198,91,-68};
Plane Surface(113)={113};
Line Loop(114)={-241,-230,-235};
Plane Surface(114)={114};
Line Loop(115)={242,243,-52,244};
Plane Surface(115)={115};
Line Loop(116)={245,-37,-218,246,-242};
Plane Surface(116)={116};
Line Loop(117)={-244,-25,-245};
Plane Surface(117)={117};
Line Loop(118)={-246,-222,-44,-243};
Plane Surface(118)={118};
Line Loop(119)={247,147,-13,248,249,132};
Plane Surface(119)={119};
Line Loop(120)={-126,250,251,146,-247};
Plane Surface(120)={120};
Line Loop(121)={-251,252,-212,145};
Plane Surface(121)={121};
Line Loop(122)={253,-10,254,255,-106,131,-249};
Plane Surface(122)={122};
Line Loop(123)={-248,-8,-253};
Plane Surface(123)={123};
Line Loop(124)={-125,117,-227,-252,-250};
Plane Surface(124)={124};
Line Loop(125)={119,256,257,-16,-143};
Plane Surface(125)={125};
Line Loop(126)={-5,-257,258,-254};
Plane Surface(126)={126};
Line Loop(127)={-255,-258,-256,-114};
Plane Surface(127)={127};
Line Loop(128)={259,-203,62,260,-26,244};
Plane Surface(128)={128};
Line Loop(129)={242,261,262,-208,-259};
Plane Surface(129)={129};
Line Loop(130)={64,263,-261,243,-43};
Plane Surface(130)={130};
Line Loop(131)={-260,63,-40};
Plane Surface(131)={131};
Line Loop(132)={-210,-262,-263,-55};
Plane Surface(132)={132};
Line Loop(133)={-252,264,265,-213};
Plane Surface(133)={133};
Line Loop(134)={-265,266,267,268,230,269,-219};
Plane Surface(134)={134};
Line Loop(135)={228,270,-267,271,123};
Plane Surface(135)={135};
Line Loop(136)={-271,-266,-264,-250,122};
Plane Surface(136)={136};
Line Loop(137)={-269,231,-224};
Plane Surface(137)={137};
Line Loop(138)={229,-268,-270};
Plane Surface(138)={138};
Line Loop(139)={272,-232,58,-159};
Plane Surface(139)={139};
Line Loop(140)={-168,-207,273,274,275,237,-272};
Plane Surface(140)={140};
Line Loop(141)={-209,-262,276,-216,277,-273};
Plane Surface(141)={141};
Line Loop(142)={-277,-221,278,235,-268,279,-274};
Plane Surface(142)={142};
Line Loop(143)={234,-278,-223,-276,-263,56};
Plane Surface(143)={143};
Line Loop(144)={-275,-279,-270,236};
Plane Surface(144)={144};
Line Loop(145)={280,281,282,-186};
Plane Surface(145)={145};
Line Loop(146)={-192,283,169,284,-280};
Plane Surface(146)={146};
Line Loop(147)={-98,172,285,239};
Plane Surface(147)={147};
Line Loop(148)={-283,202,238,-285,173};
Plane Surface(148)={148};
Line Loop(149)={170,286,-281,-284};
Plane Surface(149)={149};
Line Loop(150)={100,201,-282,-286,171};
Plane Surface(150)={150};
Line Loop(151)={287,19,288,289,290};
Plane Surface(151)={151};
Line Loop(152)={291,292,22,-287};
Plane Surface(152)={152};
Line Loop(153)={-290,293,-291};
Plane Surface(153)={153};
Line Loop(154)={-292,-293,-289,294,21};
Plane Surface(154)={154};
Line Loop(155)={-294,-288,20};
Plane Surface(155)={155};
Line Loop(156)={295,-194,157};
Plane Surface(156)={156};
Line Loop(157)={158,272,233,197,-295};
Plane Surface(157)={157};
Line Loop(158)={-265,296,297,-214};
Plane Surface(158)={158};
Line Loop(159)={-215,-297,298,299,-277};
Plane Surface(159)={159};
Line Loop(160)={266,300,301,-298,-296};
Plane Surface(160)={160};
Line Loop(161)={-301,302,-274,-299};
Plane Surface(161)={161};
Line Loop(162)={-300,267,279,-302};
Plane Surface(162)={162};
Line Loop(163)={220,278,-241,269};
Plane Surface(163)={163};
Line Loop(164)={-258,303,304,305,306,307};
Plane Surface(164)={164};
Line Loop(165)={-307,308,309,-184,286,310,-107,-255};
Plane Surface(165)={165};
Line Loop(166)={-281,311,312,313,116,-310};
Plane Surface(166)={166};
Line Loop(167)={-178,-309,314,-305,315,-311,-284};
Plane Surface(167)={167};
Line Loop(168)={-314,-308,-306};
Plane Surface(168)={168};
Line Loop(169)={-303,-256,115,-313,316};
Plane Surface(169)={169};
Line Loop(170)={-316,-312,-315,-304};
Plane Surface(170)={170};
Line Loop(171)={-38,-70,83};
Plane Surface(171)={171};
Line Loop(172)={-246,-217,-276,-261};
Plane Surface(172)={172};
Line Loop(173)={-162,-193,317,-288,-27,-260,71};
Plane Surface(173)={173};
Line Loop(174)={-317,-188,103,-32,-294};
Plane Surface(174)={174};
Line Loop(175)={264,296,318,155,-251};
Plane Surface(175)={175};
Line Loop(176)={-150,-318,297,211};
Plane Surface(176)={176};
Line Loop(177)={-253,319,138,183,320,-308,321,7};
Plane Surface(177)={177};
Line Loop(178)={137,-319,-248,9,322,323,324,325};
Plane Surface(178)={178};
Line Loop(179)={-325,326,-182,-128};
Plane Surface(179)={179};
Line Loop(180)={327,328,-322,-1,-321,-306};
Plane Surface(180)={180};
Line Loop(181)={-314,-320,-176,-326,-324,329,-327};
Plane Surface(181)={181};
Line Loop(182)={-323,-328,-329};
Plane Surface(182)={182};
Line Loop(183)={-177,320,309};
Plane Surface(183)={183};
Line Loop(184)={319,139,-249};
Plane Surface(184)={184};
Line Loop(185)={-187,-282,310,108};
Plane Surface(185)={185};
Line Loop(186)={321,-6,254,-307};
Plane Surface(186)={186};
Line Loop(187)={330,-179,285,240,-275,-302};
Plane Surface(187)={187};
Line Loop(188)={-300,271,-130,181,-330};
Plane Surface(188)={188};
Line Loop(189)={331,185,280,311,332,-293};
Plane Surface(189)={189};
Line Loop(190)={-289,-317,189,-331};
Plane Surface(190)={190};
Line Loop(191)={-292,-332,312,333,-28};
Plane Surface(191)={191};
Line Loop(192)={313,-120,34,-333};
Plane Surface(192)={192};
Line Loop(193)={334,-322,2};
Plane Surface(193)={193};
Line Loop(194)={3,335,304,336,328,-334};
Plane Surface(194)={194};
Line Loop(195)={-257,303,-335,4};
Plane Surface(195)={195};
Line Loop(196)={-336,305,327};
Plane Surface(196)={196};
Line Loop(197)={316,-335,17,337,141,-29,-333};
Plane Surface(197)={197};
Line Loop(198)={140,-337,-11};
Plane Surface(198)={198};
Line Loop(199)={338,339,324};
Plane Surface(199)={199};
Line Loop(200)={325,-127,247,-156,340,-338};
Plane Surface(200)={200};
Line Loop(201)={-152,-337,12,334,323,-339,-340};
Plane Surface(201)={201};
Surface Loop(0)={1,2,3,4,5,6,7,8};
Volume(0)={0};
Physical Volume("Cell 1")={0};
Surface Loop(1)={9,10,11,12,13,14,15,16,17,18,19,20,21,22};
Volume(1)={1};
Physical Volume("Cell 2")={1};
Surface Loop(2)={23,24,25,26,27,28,-16,29,30,31,32,33};
Volume(2)={2};
Physical Volume("Cell 3")={2};
Surface Loop(3)={34,35,36,37,38,39,-21,40,41,42,-33,43,44,45,46,47,48,49};
Volume(3)={3};
Physical Volume("Cell 4")={3};
Surface Loop(4)={50,51,52,-43,53,54,55,56,57,58};
Volume(4)={4};
Physical Volume("Cell 5")={4};
Surface Loop(5)={59,-6,60,-47,-18,61,62,63,64,65,66};
Volume(5)={5};
Physical Volume("Cell 6")={5};
Surface Loop(6)={67,68,69,70,71,72,-28,73};
Volume(6)={6};
Physical Volume("Cell 7")={6};
Surface Loop(7)={74,75,76,77,78,79,80,81,-54,-41};
Volume(7)={7};
Physical Volume("Cell 8")={7};
Surface Loop(8)={82,83,84,85,86,-27,87,-69,88,-42,89,90};
Volume(8)={8};
Physical Volume("Cell 9")={8};
Surface Loop(9)={-70,91,-25,92,93,94,95};
Volume(9)={9};
Physical Volume("Cell 10")={9};
Surface Loop(10)={96,97,98,99,-20,-36,100,-66,101,102,103,104,105};
Volume(10)={10};
Physical Volume("Cell 11")={10};
Surface Loop(11)={106,-35,-103,107,108,-31,109,-86,110,-58,111,112,113,114};
Volume(11)={11};
Physical Volume("Cell 12")={11};
Surface Loop(12)={115,116,117,118,-22,-101};
Volume(12)={12};
Physical Volume("Cell 13")={12};
Surface Loop(13)={119,120,-52,-105,-60,-45,121,122,123,124,-8,125,126,127};
Volume(13)={13};
Physical Volume("Cell 14")={13};
Surface Loop(14)={-115,128,129,-95,130,-24,-19,131,132};
Volume(14)={14};
Physical Volume("Cell 15")={14};
Surface Loop(15)={-106,-49,-50,133,-124,-104,134,135,136,137,138};
Volume(15)={15};
Physical Volume("Cell 16")={15};
Surface Loop(16)={139,140,-72,-94,141,142,-132,-102,-23,143,-108,144,-138};
Volume(16)={16};
Physical Volume("Cell 17")={16};
Surface Loop(17)={145,146,-88,147,-38,-109,-74,148,149,150};
Volume(17)={17};
Physical Volume("Cell 18")={17};
Surface Loop(18)={151,152,153,154,-9,155};
Volume(18)={18};
Physical Volume("Cell 19")={18};
Surface Loop(19)={-67,156,157,-85,-30,-139,-107};
Volume(19)={19};
Physical Volume("Cell 20")={19};
Surface Loop(20)={158,-134,-98,-142,159,160,161,162,163,-114};
Volume(20)={20};
Physical Volume("Cell 21")={20};
Surface Loop(21)={164,-127,165,-44,166,-149,167,-81,168,169,170};
Volume(21)={21};
Physical Volume("Cell 22")={21};
Surface Loop(22)={-130,-15,-29,-118,-99,-163,-111,-137,-143,-34,171,172};
Volume(22)={22};
Physical Volume("Cell 23")={22};
Surface Loop(23)={-113,-26,-87,-73,173,-171,-14,-39,174,-155,-131};
Volume(23)={23};
Physical Volume("Cell 24")={23};
Surface Loop(24)={-133,-121,175,-96,176,-63,-158};
Volume(24)={24};
Physical Volume("Cell 25")={24};
Surface Loop(25)={177,-123,-2,178,-55,179,180,181,-168,182,-79};
Volume(25)={25};
Physical Volume("Cell 26")={25};
Surface Loop(26)={-165,-40,-122,183,-80,-56,184,-177,185,-89,186,-3,-150};
Volume(26)={26};
Physical Volume("Cell 27")={26};
Surface Loop(27)={-162,187,188,-147,-37,-77,-110,-53,-135,-144};
Volume(27)={27};
Physical Volume("Cell 28")={27};
Surface Loop(28)={-154,189,190,-12,191,-185,-145,-166,192,-174,-82,-48};
Volume(28)={28};
Physical Volume("Cell 29")={28};
Surface Loop(29)={193,194,-1,195,-126,-186,-164,-180,196};
Volume(29)={29};
Physical Volume("Cell 30")={29};
Surface Loop(30)={-192,-46,-17,-125,-5,-59,197,-169,198,-195,-100};
Volume(30)={30};
Physical Volume("Cell 31")={30};
Surface Loop(31)={-178,199,200,-119,-65,201,-198,-4,-57,-184,-193};
Volume(31)={31};
Physical Volume("Cell 32")={31};
